# xmcd
#
# Track frame offsets:
#	150
#	17709
#	35219
#	51058
#	70286
#	86934
#	105353
#	126775
#	144614
#	161695
#	181244
#	199485
#	217218
#	234189
#	251791
#	266781
#	283141
#	301319
#	320988
#	337724
#
# Disc length: 4719
#
# Revision: 1
# Processed by: cddbd v1.5.1PL0 Copyright (c) Steve Scherf et al.
# Submitted via: CDex 1.50beta10
# Normalized: r0:DSETVAR1
#
DISCID=39126d14
DTITLE=Various Artist - ACC Top 40 (09-20-03) - CD1
DYEAR=2003
DGENRE=Country
TTITLE0=Alan Jackson and Jimmy Buffett - It's Five O'Clock Somewhere
TTITLE1=Dierks Bentley - What Was I Thinkin'?
TTITLE2=Kenny Chesney - No Shoes, No Shirt, No Problem
TTITLE3=Tim McGraw - Real Good Man
TTITLE4=Buddy Jewell - Lacey's Song
TTITLE5=Martina McBride - This Ones For The Girls
TTITLE6=Shania Twain - Forever And For Always
TTITLE7=Gary Allen - Tough Little Boys
TTITLE8=Clay Walker - A Few Questions
TTITLE9=Keith Urban - Who Wouldn't Wanna Be Me
TTITLE10=Brooks and Dunn - Red Dirt Road
TTITLE11=Rascal Flatts - I Melt
TTITLE12=Brad Paisley - Celebrity
TTITLE13=Toby Keith - I Love This Bar
TTITLE14=Toby Keith and Willie Nelson - Whiskey For My Men Beer For My
TTITLE15=Lonestar - My Front Porch Looking In
TTITLE16=Pat Green - Wave On Wave
TTITLE17=Trace Adkins - Then They Do
TTITLE18=Billy Currington - Walk A Little Straighter
TTITLE19=Patty Loveless - Lovin' All Night
EXTD=YEAR: 2003
EXTT0=
EXTT1=
EXTT2=
EXTT3=
EXTT4=
EXTT5=
EXTT6=
EXTT7=
EXTT8=
EXTT9=
EXTT10=
EXTT11=
EXTT12=
EXTT13=
EXTT14=
EXTT15=
EXTT16=
EXTT17=
EXTT18=
EXTT19=
PLAYORDER=
